<svg width="25" height="18" viewBox="0 0 25 18" fill="none" xmlns="http://www.w3.org/2000/svg">
<path d="M4.13284 7.20056C3.35179 6.41951 2.08546 6.41951 1.30441 7.20056C0.523366 7.98161 0.523366 9.24794 1.30441 10.029L4.13284 7.20056ZM9.51015 15.4063L8.09593 16.8205C8.87698 17.6016 10.1433 17.6016 10.9244 16.8205L9.51015 15.4063ZM23.4462 4.29864C24.2273 3.51759 24.2273 2.25126 23.4462 1.47022C22.6652 0.689168 21.3988 0.689168 20.6178 1.47022L23.4462 4.29864ZM1.30441 10.029C2.63054 11.3551 4.32842 13.053 5.69477 14.4193C6.37794 15.1025 6.97824 15.7028 7.40773 16.1323C7.62248 16.3471 7.79453 16.5191 7.9129 16.6375C7.97207 16.6966 8.01785 16.7424 8.0488 16.7734C8.06427 16.7888 8.07608 16.8007 8.08398 16.8086C8.08796 16.8125 8.0909 16.8155 8.09292 16.8175C8.09399 16.8186 8.09461 16.8192 8.09518 16.8198C8.09534 16.8199 8.09571 16.8203 8.09575 16.8203C8.09581 16.8204 8.09586 16.8204 8.09589 16.8205C8.09592 16.8205 8.09593 16.8205 9.51015 15.4063C10.9244 13.9921 10.9243 13.9921 10.9243 13.992C10.9243 13.992 10.9242 13.992 10.9242 13.9919C10.924 13.9917 10.9239 13.9917 10.9236 13.9913C10.9231 13.9908 10.9223 13.9901 10.9214 13.9891C10.9194 13.9871 10.9163 13.9841 10.9124 13.9801C10.9045 13.9722 10.8927 13.9604 10.8772 13.9449C10.8463 13.914 10.8005 13.8682 10.7413 13.809C10.623 13.6907 10.4509 13.5186 10.2362 13.3039C9.80666 12.8744 9.20637 12.2741 8.5232 11.5909C7.15685 10.2246 5.45897 8.52669 4.13284 7.20056L1.30441 10.029ZM10.9244 16.8205L23.4462 4.29864L20.6178 1.47022L8.09593 13.9921L10.9244 16.8205Z" fill="#302AFF"/>
</svg>
